<svg width="20" height="20" viewBox="0 0 20 20" fill="none" xmlns="http://www.w3.org/2000/svg">
<path d="M4.99996 18.3334H1.66663V15.0001H4.99996V18.3334ZM11.6666 18.3334H8.33329V15.0001H11.6666V18.3334ZM18.3333 18.3334H15V15.0001H18.3333V18.3334ZM8.33329 15.0001H4.99996V11.6667H8.33329V15.0001ZM15 15.0001H11.6666V11.6667H15V15.0001ZM4.99996 11.6667H1.66663V8.33342H4.99996V11.6667ZM11.6666 11.6667H8.33329V8.33342H11.6666V11.6667ZM18.3333 11.6667H15V8.33342H18.3333V11.6667ZM8.33329 8.33342H4.99996V5.00008H8.33329V8.33342ZM15 8.33342H11.6666V5.00008H15V8.33342ZM4.99996 5.00008H1.66663V1.66675H4.99996V5.00008ZM11.6666 5.00008H8.33329V1.66675H11.6666V5.00008ZM18.3333 5.00008H15V1.66675H18.3333V5.00008Z" fill="#BFBFBF"/>
</svg>
